<?xml version="1.0" encoding="iso-8859-1"?>
<!-- Uploaded to: SVG Repo, www.svgrepo.com, Generator: SVG Repo Mixer Tools -->
<!DOCTYPE svg PUBLIC "-//W3C//DTD SVG 1.1//EN" "http://www.w3.org/Graphics/SVG/1.1/DTD/svg11.dtd">
<svg height="800px" width="800px" version="1.1" id="Capa_1" xmlns="http://www.w3.org/2000/svg" xmlns:xlink="http://www.w3.org/1999/xlink" 
	 viewBox="0 0 194.943 194.943" xml:space="preserve">
<g>
	<path style="fill:#1D1D1B;" d="M97.11,24.556h-1.277c-13.645,0-26.892,3.896-38.307,11.266c-3.48,2.247-4.479,6.889-2.233,10.369
		c2.247,3.48,6.891,4.48,10.369,2.233c8.986-5.801,19.419-8.868,30.171-8.868h1.277c30.72,0,55.712,24.992,55.712,55.712v92.176
		c0,4.142,3.358,7.5,7.5,7.5s7.5-3.358,7.5-7.5V95.268C167.822,56.277,136.101,24.556,97.11,24.556z"/>
	<path style="fill:#1D1D1B;" d="M46.195,55.415c-3.51-2.199-8.138-1.133-10.336,2.377c-7.024,11.22-10.737,24.179-10.737,37.475
		v78.489c0,4.142,3.358,7.5,7.5,7.5s7.5-3.358,7.5-7.5V95.268c0-10.478,2.922-20.684,8.451-29.516
		C50.771,62.241,49.706,57.613,46.195,55.415z"/>
	<path style="fill:#1D1D1B;" d="M97.863,49.222H97.08c-25.525,0-46.292,20.767-46.292,46.292v88.798c0,4.142,3.358,7.5,7.5,7.5
		s7.5-3.358,7.5-7.5V95.514c0-17.254,14.037-31.292,31.292-31.292h0.784c17.254,0,31.292,14.038,31.292,31.292v83.263
		c0,4.142,3.358,7.5,7.5,7.5s7.5-3.358,7.5-7.5V95.514C144.155,69.989,123.389,49.222,97.863,49.222z"/>
	<path style="fill:#1D1D1B;" d="M97.63,72.556h-0.317c-12.788,0-23.192,10.404-23.192,23.192v36.03c0,4.142,3.358,7.5,7.5,7.5
		s7.5-3.358,7.5-7.5v-36.03c0-4.517,3.675-8.192,8.192-8.192h0.317c4.517,0,8.192,3.675,8.192,8.192v53.029
		c0,4.142,3.358,7.5,7.5,7.5s7.5-3.358,7.5-7.5V95.748C120.822,82.959,110.418,72.556,97.63,72.556z"/>
	<path style="fill:#1D1D1B;" d="M81.621,149.277c-4.142,0-7.5,3.358-7.5,7.5v30.667c0,4.142,3.358,7.5,7.5,7.5s7.5-3.358,7.5-7.5
		v-30.667C89.121,152.635,85.763,149.277,81.621,149.277z"/>
	<path style="fill:#1D1D1B;" d="M185.877,141.277c-4.142,0-7.5,3.358-7.5,7.5v35.535c0,4.142,3.358,7.5,7.5,7.5s7.5-3.358,7.5-7.5
		v-35.535C193.377,144.635,190.02,141.277,185.877,141.277z"/>
	<path style="fill:#1D1D1B;" d="M98.355,0h-1.768C44.192,0,1.566,42.626,1.566,95.022v89.29c0,4.142,3.358,7.5,7.5,7.5
		s7.5-3.358,7.5-7.5v-89.29C16.566,50.898,52.463,15,96.587,15h1.768c44.124,0,80.022,35.898,80.022,80.022v27.755
		c0,4.142,3.358,7.5,7.5,7.5s7.5-3.358,7.5-7.5V95.022C193.377,42.626,150.751,0,98.355,0z"/>
</g>
</svg>